<?xml version="1.0" standalone="no"?>
<!DOCTYPE svg PUBLIC "-//W3C//DTD SVG 20010904//EN"
 "http://www.w3.org/TR/2001/REC-SVG-20010904/DTD/svg10.dtd">
<svg version="1.0" xmlns="http://www.w3.org/2000/svg"
 width="512.000000pt" height="512.000000pt" viewBox="0 0 512.000000 512.000000"
 preserveAspectRatio="xMidYMid meet">

<g transform="translate(0.000000,512.000000) scale(0.100000,-0.100000)"
fill="#000000" stroke="none">
<path d="M2249 3895 c-109 -15 -272 -67 -393 -124 -186 -89 -301 -201 -387
-376 -71 -145 -92 -248 -86 -405 6 -145 24 -223 77 -335 140 -289 404 -415
1040 -495 212 -27 383 -61 507 -103 l98 -32 -1 -40 c-1 -53 -50 -130 -151
-236 -151 -159 -366 -329 -415 -329 -38 0 -181 95 -271 180 -136 129 -255 291
-376 513 -24 42 -45 77 -48 77 -3 0 -4 -42 -2 -92 l4 -93 -259 -3 -259 -2 7
-79 c33 -398 311 -687 778 -810 182 -48 313 -65 508 -65 194 -1 284 11 432 55
204 61 363 153 499 289 136 136 211 283 240 473 14 88 6 250 -16 332 -76 287
-330 492 -715 579 -36 8 -155 26 -266 40 -363 45 -590 106 -798 213 -109 57
-191 133 -201 187 -6 31 -3 41 16 63 52 55 195 106 413 145 162 29 439 31 601
4 369 -61 568 -193 568 -375 l0 -56 165 3 165 3 -7 85 c-29 361 -237 605 -622
733 -241 80 -587 111 -845 76z m395 -1309 c48 -20 78 -67 78 -123 0 -55 -23
-90 -76 -117 -49 -24 -97 -15 -144 29 -34 31 -37 38 -37 88 0 62 24 98 80 123
39 17 58 17 99 0z"/>
</g>
</svg>
